<svg width="500" height="500" viewBox="0 0 500 500" xmlns="http://www.w3.org/2000/svg"><mask id="satori_om-id"><rect x="0" y="0" width="500" height="500" fill="#fff"/></mask><rect x="0" y="0" width="500" height="500" fill="#000"/><mask id="satori_om-id-0"><rect x="20" y="20" width="460" height="54" fill="#fff"/></mask><path fill="#fff" d="M41.6 53.6L39.8 57.9L21.8 57.9L21.8 32.7L39.8 32.7L41.6 37.1L41.6 40.6L38.3 45.4L41.6 50.0L41.6 53.6ZM39.2 39.9L39.2 37.5L38.1 35.1L24.2 35.1L24.2 44.2L36.2 44.2L39.2 39.9ZM39.2 53.1L39.2 50.8L36.2 46.6L24.2 46.6L24.2 55.5L38.1 55.5L39.2 53.1ZM61.5 57.9L59.2 57.9L59.2 56.6L57.4 57.9L48.0 57.9L44.4 55.0L44.4 43.6L48.0 40.8L57.5 40.8L59.2 42.4L59.2 40.8L61.5 40.8L61.5 57.9ZM59.2 53.7L59.2 45.7L56.8 43.1L48.8 43.1L46.9 44.8L46.9 53.9L48.8 55.5L56.9 55.5L59.2 53.7ZM82.4 55.1L78.9 58.0L69.0 58.0L65.1 55.1L65.1 43.6L69.0 40.7L78.9 40.7L82.4 43.6L82.4 46.8L80.0 46.8L80.0 44.8L78.0 43.1L69.8 43.1L67.6 44.8L67.6 53.9L69.8 55.6L78.0 55.6L80.0 54.0L80.0 52.0L82.4 52.0L82.4 55.1ZM88.3 57.9L86.0 57.9L86.0 32.8L88.3 32.8L88.3 48.2L97.1 42.3L97.1 40.6L99.5 40.6L99.5 43.6L91.0 49.3L99.5 55.0L99.5 57.9L97.1 57.9L97.1 56.3L88.9 50.7L88.3 51.3L88.3 57.9ZM119.5 63.1L115.6 65.9L107.4 65.9L104.3 63.4L105.8 61.6L108.2 63.5L114.8 63.5L117.1 61.9L117.1 56.6L115.3 57.9L105.9 57.9L102.3 55.0L102.3 43.6L105.9 40.8L115.3 40.8L117.1 42.1L117.1 40.7L119.5 40.7L119.5 63.1ZM117.1 53.9L117.1 44.8L114.8 43.1L106.7 43.1L104.7 44.8L104.7 53.9L106.7 55.5L114.8 55.5L117.1 53.9ZM135.6 42.4L134.2 44.2L132.6 43.1L127.7 43.1L125.4 44.8L125.4 57.9L123.1 57.9L123.1 40.7L125.4 40.7L125.4 42.3L127.5 40.7L133.4 40.7L135.6 42.4ZM155.1 55.1L151.3 58.0L142.1 58.0L138.3 55.1L138.3 43.6L142.1 40.8L151.3 40.8L155.1 43.6L155.1 55.1ZM152.8 53.9L152.8 44.8L150.5 43.1L143.0 43.1L140.7 44.8L140.7 53.9L143.0 55.6L150.5 55.6L152.8 53.9ZM174.1 57.9L171.8 57.9L171.8 56.4L169.8 57.9L161.9 57.9L158.0 55.0L158.0 40.7L160.4 40.7L160.4 53.7L162.7 55.5L169.5 55.5L171.8 53.7L171.8 40.8L174.1 40.8L174.1 57.9ZM193.8 57.9L191.5 57.9L191.5 44.8L189.2 43.1L182.4 43.1L180.1 44.8L180.1 57.9L177.7 57.9L177.7 40.8L180.1 40.8L180.1 42.3L182.0 40.8L190.0 40.8L193.8 43.6L193.8 57.9ZM213.9 57.9L211.5 57.9L211.5 56.6L209.7 57.9L200.3 57.9L196.7 55.0L196.7 43.6L200.3 40.7L209.8 40.7L211.5 42.4L211.5 32.8L213.9 32.8L213.9 57.9ZM211.5 53.6L211.5 45.6L209.1 43.1L201.1 43.1L199.1 44.7L199.1 53.9L201.1 55.5L209.2 55.5L211.5 53.6ZM239.0 37.0L237.1 38.5L234.6 35.1L222.0 35.1L219.7 38.2L219.7 52.4L222.0 55.5L234.5 55.5L237.1 52.1L239.0 53.6L235.7 57.9L220.8 57.9L217.3 53.2L217.3 37.4L220.8 32.7L235.7 32.7L239.0 37.0ZM258.8 55.1L254.9 58.0L245.8 58.0L241.9 55.1L241.9 43.6L245.8 40.8L254.9 40.8L258.8 43.6L258.8 55.1ZM256.4 53.9L256.4 44.8L254.1 43.1L246.6 43.1L244.3 44.8L244.3 53.9L246.6 55.6L254.1 55.6L256.4 53.9ZM269.4 57.9L265.5 57.9L262.0 53.3L262.0 32.7L264.3 32.7L264.3 52.5L266.7 55.5L269.4 55.5L269.4 57.9ZM288.7 55.1L284.9 58.0L275.7 58.0L271.9 55.1L271.9 43.6L275.7 40.8L284.9 40.8L288.7 43.6L288.7 55.1ZM286.4 53.9L286.4 44.8L284.1 43.1L276.6 43.1L274.3 44.8L274.3 53.9L276.6 55.6L284.1 55.6L286.4 53.9ZM304.5 42.4L303.1 44.2L301.5 43.1L296.6 43.1L294.4 44.8L294.4 57.9L292.0 57.9L292.0 40.7L294.4 40.7L294.4 42.3L296.4 40.7L302.3 40.7L304.5 42.4ZM309.6 44.7L307.4 44.7L307.4 41.6L309.6 41.6L309.6 44.7ZM309.6 56.5L307.4 56.5L307.4 53.4L309.6 53.4L309.6 56.5Z M344.9 55.0L341.4 57.9L332.1 57.9L330.2 56.6L330.2 57.9L327.8 57.9L327.8 32.7L330.2 32.7L330.2 42.4L331.9 40.7L341.4 40.7L344.9 43.6L344.9 55.0ZM342.6 53.9L342.6 44.8L340.6 43.1L332.6 43.1L330.2 45.6L330.2 53.6L332.4 55.5L340.6 55.5L342.6 53.9ZM355.6 57.9L351.7 57.9L348.2 53.3L348.2 32.7L350.5 32.7L350.5 52.5L352.9 55.5L355.6 55.5L355.6 57.9ZM374.0 57.9L371.6 57.9L371.6 56.4L369.6 57.9L361.7 57.9L357.9 55.0L357.9 40.7L360.3 40.7L360.3 53.7L362.5 55.5L369.4 55.5L371.6 53.7L371.6 40.8L374.0 40.8L374.0 57.9ZM394.4 50.0L379.6 50.0L379.6 53.9L381.9 55.5L390.0 55.5L392.4 53.5L393.9 55.4L390.9 57.9L381.1 57.9L377.2 55.0L377.2 43.6L381.1 40.8L390.9 40.8L394.4 43.6L394.4 50.0ZM392.0 47.7L392.0 44.8L390.0 43.1L381.9 43.1L379.6 44.8L379.6 47.7L392.0 47.7Z "/><mask id="satori_om-id-1"><rect x="20" y="74" width="460" height="54" fill="#fff"/></mask><path fill="#fff" d="M41.2 89.1L34.8 89.1L32.5 92.2L32.5 111.9L30.1 111.9L30.1 92.2L27.8 89.1L21.4 89.1L21.4 86.7L28.9 86.7L31.3 89.8L33.6 86.7L41.2 86.7L41.2 89.1ZM57.3 104.2L45.8 118.3L44.0 116.8L48.0 111.8L41.4 104.2L41.4 94.7L43.8 94.7L43.8 103.3L49.2 109.5L50.0 109.5L55.0 103.4L55.0 94.7L57.3 94.7L57.3 104.2ZM77.7 109.0L74.2 111.9L64.9 111.9L62.9 110.5L62.9 119.9L60.6 119.9L60.6 94.8L62.9 94.8L62.9 96.7L65 94.7L74.2 94.7L77.7 97.6L77.7 109.0ZM75.3 107.9L75.3 98.8L73.3 97.1L65.6 97.1L62.9 99.7L62.9 107.9L65.2 109.5L73.3 109.5L75.3 107.9ZM97.7 104.0L83.0 104.0L83.0 107.9L85.2 109.5L93.3 109.5L95.7 107.5L97.3 109.4L94.2 111.9L84.4 111.9L80.6 109.0L80.6 97.6L84.4 94.8L94.2 94.8L97.7 97.6L97.7 104.0ZM95.3 101.7L95.3 98.8L93.3 97.1L85.2 97.1L83.0 98.8L83.0 101.7L95.3 101.7ZM102.8 98.7L100.6 98.7L100.6 95.6L102.8 95.6L102.8 98.7ZM102.8 110.5L100.6 110.5L100.6 107.4L102.8 107.4L102.8 110.5Z M139.2 103.7L132.6 103.7L132.6 111.9L130.3 111.9L130.3 103.7L122.7 103.7L122.7 89.3L126.0 86.7L127.5 88.6L125.2 90.5L125.2 101.3L130.3 101.3L130.3 97.2L132.6 97.2L132.6 101.3L139.2 101.3L139.2 103.7ZM162.0 107.3L158.5 111.9L145.2 111.9L141.7 107.3L141.7 91.4L145.2 86.7L158.5 86.7L162.0 91.4L162.0 107.3ZM159.6 106.5L159.6 92.2L157.3 89.1L146.4 89.1L144.1 92.2L144.1 106.5L146.4 109.5L157.3 109.5L159.6 106.5Z "/><mask id="satori_om-id-2"><rect x="20" y="128" width="460" height="54" fill="#fff"/></mask><path fill="#fff" d="M41.2 143.1L34.8 143.1L32.5 146.2L32.5 165.9L30.1 165.9L30.1 146.2L27.8 143.1L21.4 143.1L21.4 140.7L28.9 140.7L31.3 143.8L33.6 140.7L41.2 140.7L41.2 143.1ZM45.7 146.3L43.5 146.3L43.5 143.7L45.7 143.7L45.7 146.3ZM45.7 165.9L43.5 165.9L43.5 148.7L45.7 148.7L45.7 165.9ZM74.2 165.9L71.8 165.9L71.8 154.1L69.5 151.1L64.7 151.1L62.7 161.1L60.4 161.1L58.4 151.1L53.6 151.1L51.3 154.1L51.3 165.9L48.9 165.9L48.9 153.4L52.4 148.7L60.1 148.7L61.5 155.9L63.0 148.7L70.7 148.7L74.2 153.4L74.2 165.9ZM94.2 158.0L79.5 158.0L79.5 161.9L81.7 163.5L89.8 163.5L92.2 161.5L93.8 163.4L90.7 165.9L80.9 165.9L77.1 163.0L77.1 151.6L80.9 148.8L90.7 148.8L94.2 151.6L94.2 158.0ZM91.8 155.7L91.8 152.8L89.8 151.1L81.7 151.1L79.5 152.8L79.5 155.7L91.8 155.7ZM112.3 163.1L108.9 165.9L97.4 165.9L97.4 163.7L108.1 163.7L110.0 162.0L110.0 160.3L108.1 158.5L100.3 158.5L97.1 155.6L97.1 151.7L100.3 148.8L111.4 148.8L111.4 151.1L101.2 151.1L99.4 152.7L99.4 154.6L101.2 156.2L109.0 156.2L112.3 159.3L112.3 163.1ZM126.3 151.1L121.9 151.1L121.9 165.9L119.5 165.9L119.5 151.1L115.2 151.1L115.2 148.7L119.5 148.7L119.5 140.8L121.9 140.8L121.9 148.7L126.3 148.7L126.3 151.1ZM146.3 165.9L144.0 165.9L144.0 164.6L142.2 165.9L132.8 165.9L129.2 163.0L129.2 151.6L132.8 148.8L142.3 148.8L144.0 150.4L144.0 148.8L146.3 148.8L146.3 165.9ZM144.0 161.7L144.0 153.7L141.6 151.1L133.6 151.1L131.6 152.8L131.6 161.9L133.6 163.5L141.7 163.5L144.0 161.7ZM174.8 165.9L172.4 165.9L172.4 154.1L170.2 151.1L165.4 151.1L163.3 161.1L161.1 161.1L159.0 151.1L154.2 151.1L152.0 154.1L152.0 165.9L149.6 165.9L149.6 153.4L153.1 148.7L160.8 148.7L162.2 155.9L163.6 148.7L171.4 148.7L174.8 153.4L174.8 165.9ZM195.2 163.0L191.7 165.9L182.4 165.9L180.4 164.4L180.4 173.9L178.1 173.9L178.1 148.8L180.4 148.8L180.4 150.7L182.5 148.7L191.7 148.7L195.2 151.6L195.2 163.0ZM192.8 161.9L192.8 152.8L190.8 151.1L183.1 151.1L180.4 153.7L180.4 161.9L182.7 163.5L190.8 163.5L192.8 161.9ZM200.3 152.7L198.1 152.7L198.1 149.6L200.3 149.6L200.3 152.7ZM200.3 164.5L198.1 164.5L198.1 161.4L200.3 161.4L200.3 164.5Z M235.0 157.7L228.4 157.7L228.4 165.9L226.0 165.9L226.0 157.7L218.5 157.7L218.5 143.3L221.8 140.7L223.3 142.6L221.0 144.5L221.0 155.3L226.0 155.3L226.0 151.2L228.4 151.2L228.4 155.3L235.0 155.3L235.0 157.7ZM246.4 165.9L244.1 165.9L244.1 143.1L242.2 143.1L239.8 144.8L239.8 146.6L237.5 146.6L237.5 143.6L241.3 140.7L246.4 140.7L246.4 165.9ZM266.9 163.0L263.4 165.9L249.7 165.9L249.7 143.6L253.2 140.7L263.0 140.7L266.9 143.6L266.9 146.8L264.5 146.8L264.5 144.8L262.2 143.1L254.0 143.1L252.0 144.8L252.0 151.7L263.4 151.7L266.9 154.5L266.9 163.0ZM264.5 161.9L264.5 155.7L262.5 154.1L252.0 154.1L252.0 163.5L262.5 163.5L264.5 161.9ZM278.7 165.9L276.4 165.9L276.4 143.1L274.4 143.1L272.1 144.8L272.1 146.6L269.8 146.6L269.8 143.6L273.6 140.7L278.7 140.7L278.7 165.9ZM299.0 163.1L295.5 166.0L285.4 166.0L281.8 163.1L281.8 155.3L284.4 153.3L281.8 151.3L281.8 143.6L285.4 140.7L295.5 140.7L299.0 143.6L299.0 151.3L296.4 153.3L299.0 155.3L299.0 163.1ZM296.6 150.1L296.6 144.7L294.6 143.1L286.2 143.1L284.2 144.7L284.2 150.1L286.8 152.1L294.1 152.1L296.6 150.1ZM296.6 161.9L296.6 156.5L294.1 154.5L286.8 154.5L284.2 156.5L284.2 161.9L286.2 163.6L294.6 163.6L296.6 161.9ZM322.2 161.3L318.7 165.9L305.4 165.9L301.9 161.3L301.9 145.4L305.4 140.7L318.7 140.7L322.2 145.4L322.2 161.3ZM319.8 160.5L319.8 146.2L317.5 143.1L306.6 143.1L304.3 146.2L304.3 160.5L306.6 163.5L317.5 163.5L319.8 160.5ZM334.1 165.9L331.7 165.9L331.7 143.1L329.8 143.1L327.4 144.8L327.4 146.6L325.1 146.6L325.1 143.6L329.0 140.7L334.1 140.7L334.1 165.9ZM354.4 163.0L350.9 165.9L341.0 165.9L337.1 163.0L337.1 159.7L339.5 159.7L339.5 161.8L341.8 163.5L350.0 163.5L352.0 161.9L352.0 156.5L347.9 153.4L352.0 150.1L352.0 144.7L350.0 143.1L341.8 143.1L339.5 144.7L339.5 146.9L337.1 146.9L337.1 143.5L341.0 140.7L350.9 140.7L354.4 143.6L354.4 151.3L351.8 153.3L354.4 155.3L354.4 163.0ZM366.2 165.9L363.9 165.9L363.9 143.1L361.9 143.1L359.6 144.8L359.6 146.6L357.2 146.6L357.2 143.6L361.1 140.7L366.2 140.7L366.2 165.9ZM385.7 157.7L379.1 157.7L379.1 165.9L376.8 165.9L376.8 157.7L369.3 157.7L369.3 143.3L372.5 140.7L374.0 142.6L371.7 144.5L371.7 155.3L376.8 155.3L376.8 151.2L379.1 151.2L379.1 155.3L385.7 155.3L385.7 157.7Z "/></svg>