<svg width="500" height="500" viewBox="0 0 500 500" xmlns="http://www.w3.org/2000/svg"><mask id="satori_om-id"><rect x="0" y="0" width="500" height="500" fill="#fff"/></mask><rect x="0" y="0" width="500" height="500" fill="#09D3FF"/><mask id="satori_om-id-0"><rect x="20" y="20" width="460" height="54" fill="#fff"/></mask><path fill="#FFBDFC" d="M41.2 35.1L34.8 35.1L32.5 38.2L32.5 57.9L30.1 57.9L30.1 38.2L27.8 35.1L21.4 35.1L21.4 32.7L28.9 32.7L31.3 35.8L33.6 32.7L41.2 32.7L41.2 35.1ZM57.3 50.2L45.8 64.3L44.0 62.8L48.0 57.8L41.4 50.1L41.4 40.7L43.8 40.7L43.8 49.3L49.2 55.5L50.0 55.5L55.0 49.4L55.0 40.7L57.3 40.7L57.3 50.2ZM77.7 55.0L74.2 57.9L64.9 57.9L62.9 56.5L62.9 65.9L60.6 65.9L60.6 40.8L62.9 40.8L62.9 42.7L65 40.7L74.2 40.7L77.7 43.6L77.7 55.0ZM75.3 53.9L75.3 44.8L73.3 43.1L65.6 43.1L62.9 45.7L62.9 53.9L65.2 55.5L73.3 55.5L75.3 53.9ZM97.7 50.0L83.0 50.0L83.0 53.9L85.2 55.5L93.3 55.5L95.7 53.5L97.3 55.4L94.2 57.9L84.4 57.9L80.6 55.0L80.6 43.6L84.4 40.8L94.2 40.8L97.7 43.6L97.7 50.0ZM95.3 47.7L95.3 44.8L93.3 43.1L85.2 43.1L83.0 44.8L83.0 47.7L95.3 47.7ZM102.8 44.7L100.6 44.7L100.6 41.6L102.8 41.6L102.8 44.7ZM102.8 56.5L100.6 56.5L100.6 53.4L102.8 53.4L102.8 56.5Z M139.2 49.7L132.6 49.7L132.6 57.9L130.3 57.9L130.3 49.7L122.7 49.7L122.7 35.3L126.0 32.7L127.5 34.6L125.2 36.5L125.2 47.3L130.3 47.3L130.3 43.2L132.6 43.2L132.6 47.3L139.2 47.3L139.2 49.7ZM158.2 49.7L151.6 49.7L151.6 57.9L149.2 57.9L149.2 49.7L141.7 49.7L141.7 35.3L145.0 32.7L146.5 34.6L144.2 36.5L144.2 47.3L149.2 47.3L149.2 43.2L151.6 43.2L151.6 47.3L158.2 47.3L158.2 49.7Z "/><mask id="satori_om-id-1"><rect x="20" y="74" width="460" height="54" fill="#fff"/></mask><path fill="#FFBDFC" d="M41.2 89.1L34.8 89.1L32.5 92.2L32.5 111.9L30.1 111.9L30.1 92.2L27.8 89.1L21.4 89.1L21.4 86.7L28.9 86.7L31.3 89.8L33.6 86.7L41.2 86.7L41.2 89.1ZM45.7 92.3L43.5 92.3L43.5 89.7L45.7 89.7L45.7 92.3ZM45.7 111.9L43.5 111.9L43.5 94.7L45.7 94.7L45.7 111.9ZM74.2 111.9L71.8 111.9L71.8 100.1L69.5 97.1L64.7 97.1L62.7 107.1L60.4 107.1L58.4 97.1L53.6 97.1L51.3 100.1L51.3 111.9L48.9 111.9L48.9 99.4L52.4 94.7L60.1 94.7L61.5 101.9L63.0 94.7L70.7 94.7L74.2 99.4L74.2 111.9ZM94.2 104.0L79.5 104.0L79.5 107.9L81.7 109.5L89.8 109.5L92.2 107.5L93.8 109.4L90.7 111.9L80.9 111.9L77.1 109.0L77.1 97.6L80.9 94.8L90.7 94.8L94.2 97.6L94.2 104.0ZM91.8 101.7L91.8 98.8L89.8 97.1L81.7 97.1L79.5 98.8L79.5 101.7L91.8 101.7ZM112.3 109.1L108.9 111.9L97.4 111.9L97.4 109.7L108.1 109.7L110.0 108.0L110.0 106.3L108.1 104.5L100.3 104.5L97.1 101.6L97.1 97.7L100.3 94.8L111.4 94.8L111.4 97.1L101.2 97.1L99.4 98.7L99.4 100.6L101.2 102.2L109.0 102.2L112.3 105.3L112.3 109.1ZM126.3 97.1L121.9 97.1L121.9 111.9L119.5 111.9L119.5 97.1L115.2 97.1L115.2 94.7L119.5 94.7L119.5 86.8L121.9 86.8L121.9 94.7L126.3 94.7L126.3 97.1ZM146.3 111.9L144.0 111.9L144.0 110.6L142.2 111.9L132.8 111.9L129.2 109.0L129.2 97.6L132.8 94.8L142.3 94.8L144.0 96.4L144.0 94.8L146.3 94.8L146.3 111.9ZM144.0 107.7L144.0 99.7L141.6 97.1L133.6 97.1L131.6 98.8L131.6 107.9L133.6 109.5L141.7 109.5L144.0 107.7ZM174.8 111.9L172.4 111.9L172.4 100.1L170.2 97.1L165.4 97.1L163.3 107.1L161.1 107.1L159.0 97.1L154.2 97.1L152.0 100.1L152.0 111.9L149.6 111.9L149.6 99.4L153.1 94.7L160.8 94.7L162.2 101.9L163.6 94.7L171.4 94.7L174.8 99.4L174.8 111.9ZM195.2 109.0L191.7 111.9L182.4 111.9L180.4 110.5L180.4 119.9L178.1 119.9L178.1 94.8L180.4 94.8L180.4 96.7L182.5 94.7L191.7 94.7L195.2 97.6L195.2 109.0ZM192.8 107.9L192.8 98.8L190.8 97.1L183.1 97.1L180.4 99.7L180.4 107.9L182.7 109.5L190.8 109.5L192.8 107.9ZM200.3 98.7L198.1 98.7L198.1 95.6L200.3 95.6L200.3 98.7ZM200.3 110.5L198.1 110.5L198.1 107.4L200.3 107.4L200.3 110.5Z M239.0 95.4L235.7 100.2L222.4 107.5L222.4 109.5L238.6 109.5L238.6 111.9L219.9 111.9L219.9 106.0L234.1 98.4L236.6 94.7L236.6 92.2L234.4 89.1L223.0 89.1L220.4 92.5L218.5 91.0L221.7 86.7L235.5 86.7L239.0 91.4L239.0 95.4ZM250.9 111.9L248.5 111.9L248.5 89.1L246.6 89.1L244.2 90.8L244.2 92.6L241.9 92.6L241.9 89.6L245.8 86.7L250.9 86.7L250.9 111.9ZM271.2 109.1L267.6 112.0L257.5 112.0L253.9 109.1L253.9 101.3L256.6 99.3L253.9 97.3L253.9 89.6L257.5 86.7L267.6 86.7L271.2 89.6L271.2 97.3L268.6 99.3L271.2 101.3L271.2 109.1ZM268.8 96.1L268.8 90.7L266.8 89.1L258.4 89.1L256.3 90.7L256.3 96.1L258.9 98.1L266.2 98.1L268.8 96.1ZM268.8 107.9L268.8 102.5L266.2 100.5L258.9 100.5L256.3 102.5L256.3 107.9L258.3 109.6L266.8 109.6L268.8 107.9ZM294.6 95.4L291.3 100.2L277.9 107.5L277.9 109.5L294.1 109.5L294.1 111.9L275.5 111.9L275.5 106.0L289.7 98.4L292.2 94.7L292.2 92.2L289.9 89.1L278.5 89.1L276.0 92.5L274.1 91.0L277.3 86.7L291.1 86.7L294.6 91.4L294.6 95.4ZM314.7 109.0L311.2 111.9L301.3 111.9L297.5 109.0L297.5 105.7L299.9 105.7L299.9 107.8L302.1 109.5L310.3 109.5L312.3 107.9L312.3 102.5L308.2 99.4L312.3 96.1L312.3 90.7L310.3 89.1L302.2 89.1L299.9 90.7L299.9 92.9L297.5 92.9L297.5 89.5L301.3 86.7L311.2 86.7L314.7 89.6L314.7 97.3L312.1 99.3L314.7 101.3L314.7 109.0ZM326.5 111.9L324.2 111.9L324.2 89.1L322.3 89.1L319.9 90.8L319.9 92.6L317.6 92.6L317.6 89.6L321.4 86.7L326.5 86.7L326.5 111.9ZM346.1 103.7L339.5 103.7L339.5 111.9L337.1 111.9L337.1 103.7L329.6 103.7L329.6 89.3L332.9 86.7L334.4 88.6L332.0 90.5L332.0 101.3L337.1 101.3L337.1 97.2L339.5 97.2L339.5 101.3L346.1 101.3L346.1 103.7ZM365.8 109.0L362.3 111.9L352.5 111.9L348.6 109.0L348.6 105.7L351.0 105.7L351.0 107.8L353.3 109.5L361.4 109.5L363.4 107.9L363.4 102.5L359.3 99.4L363.4 96.1L363.4 90.7L361.4 89.1L353.3 89.1L351.0 90.7L351.0 92.9L348.6 92.9L348.6 89.5L352.5 86.7L362.3 86.7L365.8 89.6L365.8 97.3L363.2 99.3L365.8 101.3L365.8 109.0ZM385.1 103.7L378.6 103.7L378.6 111.9L376.2 111.9L376.2 103.7L368.7 103.7L368.7 89.3L372.0 86.7L373.4 88.6L371.1 90.5L371.1 101.3L376.2 101.3L376.2 97.2L378.6 97.2L378.6 101.3L385.1 101.3L385.1 103.7Z "/></svg>